<?xml version="1.0" standalone="no"?>
<!DOCTYPE svg PUBLIC "-//W3C//DTD SVG 20010904//EN"
 "http://www.w3.org/TR/2001/REC-SVG-20010904/DTD/svg10.dtd">
<svg version="1.0" xmlns="http://www.w3.org/2000/svg"
 width="270.000000pt" height="270.000000pt" viewBox="0 0 270.000000 270.000000"
 preserveAspectRatio="xMidYMid meet">

<g transform="translate(0.000000,270.000000) scale(0.100000,-0.100000)"
fill="#000000" stroke="none">
<path d="M0 1350 l0 -1350 1350 0 1350 0 0 1350 0 1350 -1350 0 -1350 0 0
-1350z m1608 1125 c46 -10 70 -21 66 -27 -4 -7 -2 -8 5 -4 17 11 113 -23 104
-37 -4 -6 -1 -8 8 -5 20 8 165 -67 161 -82 -2 -7 3 -10 10 -7 17 6 83 -39 69
-47 -15 -10 -53 13 -45 26 4 7 2 8 -5 4 -15 -10 -43 13 -34 27 4 6 0 8 -8 5
-18 -7 -192 76 -182 86 4 4 1 4 -8 1 -8 -3 -41 4 -74 15 -253 87 -583 59 -843
-71 -41 -21 -79 -36 -84 -33 -13 8 2 26 18 20 7 -3 16 0 20 6 4 7 3 8 -4 4 -7
-4 -12 -5 -12 -3 0 10 137 69 224 98 60 20 100 28 120 24 25 -5 28 -4 16 5
-12 9 -8 11 18 7 18 -2 35 -1 37 3 9 15 348 2 423 -15z m-108 -70 c113 -17
182 -37 270 -78 36 -16 71 -30 78 -30 7 0 9 -4 4 -9 -5 -5 -38 5 -75 22 -283
128 -629 124 -901 -12 -32 -16 -61 -27 -64 -24 -10 10 166 87 246 107 161 40
289 48 442 24z m-82 -98 c-4 -63 -4 -63 22 -60 22 3 23 2 5 -6 -11 -5 -14 -10
-7 -10 6 -1 12 -6 12 -12 0 -8 -4 -8 -12 -1 -17 14 -50 18 -65 9 -7 -5 -13 -4
-13 0 0 5 -9 9 -20 9 -11 0 -20 -5 -20 -11 0 -5 -4 -4 -9 3 -6 11 -14 11 -42
-1 l-34 -14 25 -8 c14 -4 28 -12 31 -17 9 -14 99 -11 99 4 0 4 14 8 31 8 20 0
28 -4 23 -12 -4 -6 -3 -8 3 -5 15 9 37 123 27 139 -4 7 8 -1 28 -19 20 -17 46
-34 58 -38 16 -5 19 -13 16 -33 -2 -15 -5 -31 -5 -36 -1 -6 -6 -5 -13 2 -7 7
-25 12 -41 12 -26 0 -27 -1 -13 -16 9 -8 16 -22 16 -30 0 -8 4 -14 9 -14 5 0
12 -8 16 -19 4 -15 13 -17 48 -14 23 3 52 6 65 6 12 1 22 4 22 7 0 14 -26 30
-47 30 -13 0 -23 5 -23 11 0 6 -7 9 -15 5 -21 -8 -19 18 3 35 15 13 16 12 3
-3 -17 -23 2 -24 25 -1 15 16 15 17 -2 25 -15 6 -13 7 8 5 20 -2 36 -17 63
-56 32 -48 35 -59 29 -98 -4 -29 -3 -43 5 -43 6 0 11 16 11 35 l0 35 33 -20
c17 -11 44 -20 58 -20 30 0 49 -32 49 -83 0 -23 3 -28 9 -18 5 8 6 21 3 30 -5
14 -4 14 14 1 10 -8 21 -16 23 -17 2 -2 -8 -12 -22 -23 -14 -11 -32 -36 -38
-55 -9 -23 -19 -35 -32 -35 -25 0 -73 -26 -89 -48 -7 -11 -27 -26 -44 -35 -30
-16 -64 -69 -64 -101 0 -9 -6 -16 -14 -16 -9 0 -16 17 -21 45 -10 68 -31 112
-81 165 -151 161 -420 62 -442 -162 -6 -60 -27 -64 -42 -9 -6 24 -22 49 -40
63 -17 13 -47 38 -67 56 -21 19 -52 35 -74 38 -30 5 -38 11 -42 33 -3 15 -18
39 -33 54 -26 26 -26 29 -11 45 16 15 17 15 17 -6 0 -12 5 -22 10 -22 6 0 10
12 10 28 0 54 10 70 45 74 29 3 35 0 40 -19 6 -27 24 -31 26 -5 3 42 5 47 17
44 8 -1 11 2 7 8 -3 5 1 20 9 32 15 21 16 20 16 -34 0 -41 4 -57 16 -62 10 -4
13 -2 8 6 -18 29 -14 117 7 158 19 36 25 40 55 38 22 -1 34 -7 34 -16 0 -12
-3 -12 -15 -2 -21 18 -30 6 -10 -14 18 -17 40 -22 30 -7 -3 5 -1 12 4 16 6 3
8 12 5 20 -4 8 6 19 23 29 16 8 35 22 42 30 17 20 31 21 31 1 0 -25 23 -65 37
-65 7 0 13 5 13 11 0 5 5 7 12 3 8 -5 9 10 4 59 l-7 67 82 0 81 0 -4 -63z
m-254 22 c-24 -27 -62 -46 -94 -49 -38 -3 -42 -1 -28 13 7 8 20 12 29 10 19
-5 69 18 89 42 7 8 15 13 18 10 3 -3 -3 -14 -14 -26z m395 -6 c19 -13 44 -23
57 -23 23 0 40 -15 27 -23 -16 -10 -88 23 -117 54 -32 33 -25 31 33 -8z m-815
-2 c3 -5 -20 -26 -52 -46 -91 -61 -150 -114 -170 -156 -14 -28 -21 -35 -26
-24 -3 8 -1 15 4 15 5 0 7 6 4 13 -5 13 88 107 106 107 6 0 8 5 4 12 -4 6 -3
8 3 5 6 -4 13 0 16 8 6 15 84 75 98 75 4 0 10 -4 13 -9z m242 -84 c-38 -78
-88 -127 -128 -127 l-32 0 24 17 c48 32 92 79 122 132 39 67 50 50 14 -22z
m-36 13 c-17 -22 -28 -40 -23 -40 9 0 -40 -44 -75 -67 -12 -9 -25 -13 -28 -10
-3 3 5 11 18 18 29 15 79 56 78 64 -1 8 54 84 59 80 2 -2 -11 -22 -29 -45z
m774 31 c10 -11 15 -24 12 -30 -4 -5 -1 -13 5 -17 7 -4 9 -3 5 4 -3 6 21 -16
54 -49 33 -33 60 -65 60 -70 0 -14 -64 -11 -82 4 -23 18 -75 97 -93 140 -14
35 -14 37 3 37 11 0 27 -9 36 -19z m-1154 -21 c0 -5 -4 -10 -10 -10 -5 0 -10
5 -10 10 0 6 5 10 10 10 6 0 10 -4 10 -10z m220 1 c0 -5 -7 -12 -16 -15 -24
-9 -28 -7 -14 9 14 17 30 20 30 6z m1124 -7 c9 -8 16 -18 16 -20 0 -7 -38 15
-45 26 -10 16 12 12 29 -6z m221 6 c3 -5 -1 -10 -10 -10 -9 0 -13 5 -10 10 3
6 8 10 10 10 2 0 7 -4 10 -10z m-75 -16 c0 -8 -4 -12 -10 -9 -5 3 -10 10 -10
16 0 5 5 9 10 9 6 0 10 -7 10 -16z m126 -127 c3 -10 0 -24 -6 -31 -10 -8 -12
-7 -8 5 8 21 -10 49 -59 93 -24 21 -40 43 -36 49 7 12 99 -85 109 -116z
m-1448 86 c47 -31 43 -48 -14 -59 -32 -6 -88 9 -99 26 -8 12 35 60 54 60 9 0
36 -12 59 -27z m162 24 c0 -2 -15 -16 -32 -33 l-33 -29 29 33 c28 30 36 37 36
29z m1146 -22 c20 -31 15 -39 -19 -26 -15 6 -29 6 -32 2 -2 -5 5 -11 16 -14
32 -8 13 -27 -27 -27 -21 0 -33 4 -29 10 3 6 -3 10 -14 10 -36 0 -32 18 11 44
54 32 73 33 94 1z m-1526 5 c0 -5 -2 -10 -4 -10 -3 0 -8 5 -11 10 -3 6 -1 10
4 10 6 0 11 -4 11 -10z m1295 -10 c10 -11 16 -20 13 -20 -3 0 -13 9 -23 20
-10 11 -16 20 -13 20 3 0 13 -9 23 -20z m365 16 c0 -3 -4 -8 -10 -11 -5 -3
-10 -1 -10 4 0 6 5 11 10 11 6 0 10 -2 10 -4z m40 -20 c0 -3 -4 -8 -10 -11 -5
-3 -10 -1 -10 4 0 6 5 11 10 11 6 0 10 -2 10 -4z m-1602 -48 c16 -16 15 -48
-1 -48 -7 0 -18 14 -24 30 -12 32 1 42 25 18z m1478 -5 c-3 -10 -8 -31 -11
-48 -13 -59 -16 -65 -39 -65 -24 0 -46 17 -46 35 0 19 32 13 38 -7 2 -10 8
-18 13 -18 16 0 20 25 9 54 -7 19 -7 33 0 47 14 24 43 26 36 2z m-1524 -31
c-2 -17 3 -36 15 -49 l18 -22 43 20 c39 18 60 38 27 25 -8 -3 -15 0 -15 7 0
14 95 16 108 2 4 -4 -1 -5 -10 -2 -12 4 -19 -1 -23 -14 -5 -13 -12 -18 -22
-14 -10 3 -22 -3 -30 -15 -8 -12 -25 -20 -41 -20 -16 0 -32 -8 -40 -20 -13
-21 -37 -26 -47 -10 -3 5 0 7 9 4 8 -3 19 3 26 15 6 12 8 22 5 22 -3 1 -8 2
-12 3 -32 6 -39 28 -23 70 12 34 18 33 12 -2z m1561 -15 c1 -14 -2 -27 -8 -29
-5 -2 -11 15 -13 37 -2 29 0 37 8 29 6 -6 12 -23 13 -37z m-1347 -21 c-9 -35
-45 -76 -67 -76 -11 0 -17 5 -14 10 4 6 10 8 15 5 10 -6 36 34 32 48 -1 5 2 6
7 3 10 -7 20 15 22 47 1 18 2 19 6 4 3 -10 2 -29 -1 -41z m1129 21 c-4 -19 -2
-20 8 -7 15 19 97 21 97 3 0 -7 -6 -10 -13 -7 -8 3 -18 -5 -24 -18 l-10 -23
-16 30 c-13 26 -16 27 -22 12 -4 -10 0 -28 9 -42 9 -13 12 -26 7 -29 -13 -8
-44 31 -35 45 4 7 3 10 -4 5 -12 -7 -20 20 -14 46 6 26 22 12 17 -15z m-1499
-98 c-24 -35 -54 -70 -65 -77 -20 -12 -21 -11 -9 7 7 11 16 17 22 14 5 -4 7 1
3 10 -3 10 -2 17 3 17 6 0 10 6 10 14 0 17 74 99 78 87 2 -5 -17 -37 -42 -72z
m1838 50 c-3 -5 -1 -9 5 -9 6 0 29 -27 51 -60 35 -52 38 -58 18 -51 -14 5 -22
15 -20 26 2 10 -1 14 -7 10 -7 -4 -8 1 -4 12 3 10 3 15 -2 11 -13 -12 -35 12
-28 29 4 10 2 14 -4 10 -12 -7 -46 37 -36 47 9 8 34 -15 27 -25z m-1763 -52
c-13 -12 -20 -15 -16 -7 14 26 28 41 33 35 3 -3 -5 -16 -17 -28z m1619 13 c13
-13 15 -20 7 -20 -14 0 -37 20 -37 32 0 13 9 9 30 -12z m88 -2 c14 -14 16 -28
2 -28 -5 0 -14 9 -20 20 -12 22 -1 27 18 8z m-211 -4 c-3 -3 -12 -4 -19 -1 -8
3 -5 6 6 6 11 1 17 -2 13 -5z m-1533 -58 c-3 -9 -10 -13 -16 -10 -5 3 -4 12 3
20 15 18 22 13 13 -10z m1786 -9 c0 -5 -4 -5 -10 -2 -5 3 -10 14 -10 23 0 15
2 15 10 2 5 -8 10 -19 10 -23z m-1479 -7 c31 -30 36 -69 11 -78 -7 -2 -10 2
-6 11 9 26 -25 66 -62 73 -38 7 -36 24 2 24 15 0 38 -13 55 -30z m1254 20 c3
-5 0 -10 -7 -11 -52 -3 -88 -32 -88 -71 0 -11 -5 -18 -12 -15 -22 7 -9 51 22
80 30 27 73 36 85 17z m-1381 -9 c4 -5 -3 -7 -14 -4 -23 6 -26 13 -6 13 8 0
17 -4 20 -9z m1441 -1 c-28 -12 -37 -12 -30 0 3 6 16 10 28 9 21 0 21 -1 2 -9z
m-1509 -24 c3 -8 12 -12 19 -10 7 3 24 -5 37 -18 24 -24 26 -25 58 -27 27 -1
47 -37 54 -96 5 -39 4 -44 -3 -22 -5 16 -16 36 -23 45 -9 11 -10 14 0 8 6 -4
12 -3 12 3 0 16 -42 41 -68 41 -14 0 -33 11 -44 26 -11 14 -23 23 -26 20 -3
-4 -14 2 -24 11 -11 10 -19 13 -18 8 5 -24 -1 -27 -15 -9 -8 10 -15 22 -15 27
0 13 51 7 56 -7z m823 3 c107 -23 181 -117 181 -231 l0 -58 -224 0 c-195 0
-225 2 -230 16 -10 25 -7 57 9 112 25 82 88 143 170 163 43 10 39 10 94 -2z
m782 -3 c-7 -9 -8 -17 -3 -20 6 -3 12 1 16 9 3 8 10 15 15 15 5 0 -5 -27 -21
-60 -32 -64 -49 -76 -25 -19 12 31 11 36 -5 52 -18 17 -19 17 -27 -5 -5 -13
-5 -24 0 -26 11 -4 12 -32 1 -32 -4 0 -16 -13 -25 -30 -19 -32 -47 -31 -47 2
0 15 -5 18 -19 13 -11 -3 -22 -1 -26 5 -5 8 4 10 26 8 25 -2 33 -7 31 -20 -1
-9 3 -20 9 -24 7 -4 9 -3 5 4 -3 6 -2 13 4 17 7 4 7 13 -1 28 -10 21 -10 21 5
3 12 -15 16 -16 16 -5 0 8 -6 21 -12 28 -8 9 -8 11 -2 8 7 -4 15 0 18 8 4 12
2 13 -13 6 -10 -6 -21 -17 -25 -26 -3 -9 -18 -15 -35 -15 -30 0 -61 -22 -61
-43 0 -7 5 -4 11 6 6 9 15 15 20 11 13 -8 -8 -34 -27 -34 -20 0 -17 44 4 62 9
9 28 19 42 23 14 4 35 16 47 27 12 11 26 17 31 14 5 -3 15 1 22 9 7 8 24 15
37 15 21 0 23 -3 14 -14z m-1636 -70 c8 -26 10 -44 5 -41 -6 4 -10 13 -10 21
0 8 -5 14 -10 14 -6 0 -10 6 -9 13 3 26 -1 48 -9 43 -5 -3 -9 2 -9 10 0 28 27
-10 42 -60z m-70 39 c19 -19 25 -35 25 -70 0 -52 -11 -77 -49 -117 -26 -28
-51 -36 -51 -18 0 5 4 9 9 8 5 -2 9 2 9 7 0 6 -4 9 -9 8 -20 -6 -7 16 13 23
13 4 29 14 36 23 10 12 12 12 6 1 -6 -12 -4 -13 6 -3 11 10 8 21 -19 58 -18
25 -29 51 -26 57 4 7 -3 2 -14 -12 -11 -14 -21 -20 -21 -13 0 6 5 15 10 18 6
4 8 10 6 14 -3 4 7 8 21 9 22 2 24 0 13 -13 -21 -25 5 -45 28 -21 16 16 16 18
-2 32 -30 21 -62 17 -80 -11 -20 -30 -20 -46 -2 -71 13 -16 18 -17 35 -7 12 8
22 9 26 3 3 -5 -4 -14 -15 -20 -15 -8 -27 -7 -50 5 -16 9 -30 18 -30 21 0 3 6
2 13 -1 6 -4 4 0 -6 9 -17 13 -18 19 -7 50 20 60 81 76 125 31z m1855 7 c35
-28 33 -88 -3 -116 -27 -20 -29 -20 -59 -3 l-30 17 6 -26 c5 -17 3 -23 -4 -19
-16 10 -12 -6 8 -29 17 -21 17 -21 -5 -2 -17 14 -21 26 -17 45 4 18 3 22 -4
13 -7 -11 -11 -8 -15 10 -4 12 -3 24 2 26 5 1 7 16 5 32 -3 22 3 34 23 49 32
26 64 27 93 3z m-1761 -23 c-8 -5 -9 -9 -3 -9 5 0 15 5 20 10 8 8 15 6 25 -6
9 -12 10 -15 1 -10 -9 5 -11 1 -8 -16 3 -13 5 -25 5 -28 1 -3 5 1 9 7 7 10 12
10 27 0 15 -11 16 -21 10 -53 l-8 -39 -8 31 c-5 17 -27 48 -50 68 -27 24 -39
41 -35 51 3 9 11 13 17 9 8 -4 7 -9 -2 -15z m1591 -6 c0 -19 -13 -9 -16 12 -1
8 2 13 7 9 5 -3 9 -12 9 -21z m-1276 -37 c19 -8 37 -23 40 -34 4 -12 19 -22
37 -26 23 -4 34 -15 49 -48 11 -24 20 -51 20 -60 0 -11 8 -18 19 -18 25 0 67
-38 76 -67 10 -34 -17 -29 -37 8 -15 26 -20 28 -38 19 -11 -6 -21 -21 -21 -33
-1 -12 -7 5 -14 38 -6 33 -19 77 -28 97 -16 38 -51 66 -62 49 -7 -12 12 -24
24 -16 15 9 22 -11 12 -37 -6 -15 -10 -17 -10 -7 -1 9 -21 35 -46 58 -24 22
-39 41 -32 41 7 0 17 -3 23 -7 5 -5 -1 2 -14 15 -14 13 -36 22 -55 22 -24 0
-28 3 -17 10 20 13 35 12 74 -4z m1005 5 c17 -11 -3 -25 -24 -17 -8 3 -17 0
-21 -6 -5 -7 -2 -8 7 -4 8 4 -4 -7 -25 -25 -21 -18 -48 -51 -58 -74 -11 -22
-17 -30 -15 -17 7 32 -19 28 -28 -5 -5 -20 -9 -23 -15 -13 -6 9 -8 6 -8 -11 0
-43 -14 -109 -24 -109 -9 0 -4 42 7 60 3 5 1 10 -5 10 -12 0 -30 -13 -66 -49
-30 -30 -41 -22 -25 17 12 28 47 52 76 52 8 0 15 9 15 20 0 42 29 90 62 105
18 7 39 23 46 35 20 33 72 49 101 31z m-1469 -16 c0 -8 -7 -15 -16 -15 -14 0
-14 3 -4 15 7 8 14 15 16 15 2 0 4 -7 4 -15z m280 5 c13 -9 13 -10 0 -10 -8 0
-22 5 -30 10 -13 9 -13 10 0 10 8 0 22 -5 30 -10z m1460 -75 c13 -14 21 -25
18 -25 -2 0 -15 11 -28 25 -13 14 -21 25 -18 25 2 0 15 -11 28 -25z m-13 -17
c13 -12 23 -25 23 -30 0 -5 -11 4 -24 19 -22 25 -27 26 -45 16 -24 -15 -34
-17 -27 -5 6 10 -50 9 -60 -1 -4 -4 -21 -7 -38 -7 -17 0 -26 4 -19 8 6 4 -9 7
-33 8 -24 0 -41 -3 -38 -7 2 -4 -1 -11 -7 -15 -8 -4 -9 -3 -5 4 11 17 -5 14
-26 -5 -12 -11 -18 -30 -18 -60 0 -43 7 -52 26 -33 6 6 10 0 11 -18 1 -23 0
-24 -7 -7 -7 19 -8 19 -18 -5 -11 -27 -39 -56 -47 -48 -7 7 27 181 38 196 7 8
49 12 150 12 131 0 142 -2 164 -22z m259 7 c-3 -8 -2 -15 3 -15 13 0 52 -152
58 -232 8 -89 -11 -87 -20 2 -4 34 -14 89 -23 123 -9 34 -17 69 -19 77 -2 8
-4 20 -5 25 -4 16 0 35 6 35 3 0 4 -7 0 -15z m-2100 -22 c-23 -76 -38 -149
-43 -210 -3 -43 -11 -74 -18 -77 -9 -3 -12 9 -9 47 8 99 48 257 65 257 6 0 8
-8 5 -17z m1757 -9 c-8 -21 -106 -19 -124 3 -13 15 -12 15 9 4 30 -16 102 -12
95 6 -3 9 0 11 10 7 9 -3 13 -12 10 -20z m239 2 c14 -20 8 -36 -12 -36 -12 0
-20 7 -20 18 0 14 2 15 10 2 5 -8 12 -12 15 -8 4 3 -4 16 -17 28 -20 19 -21
20 -3 14 11 -4 23 -12 27 -18z m-187 5 c3 -5 1 -12 -5 -16 -5 -3 -10 1 -10 9
0 18 6 21 15 7z m239 -41 c-7 -6 -24 22 -23 40 0 9 6 5 14 -10 7 -14 11 -27 9
-30z m-484 16 c0 -8 -4 -18 -10 -21 -5 -3 -10 3 -10 14 0 12 5 21 10 21 6 0
10 -6 10 -14z m220 -6 c0 -5 -4 -10 -10 -10 -5 0 -10 5 -10 10 0 6 5 10 10 10
6 0 10 -4 10 -10z m50 0 c0 -5 -4 -10 -10 -10 -5 0 -10 5 -10 10 0 6 5 10 10
10 6 0 10 -4 10 -10z m-1290 -27 c41 -24 88 -113 60 -113 -5 0 -10 9 -10 19 0
28 -21 37 -37 16 -12 -17 -13 -17 -13 -2 0 10 7 20 15 23 12 5 13 10 4 20 -6
8 -15 12 -19 9 -4 -3 -10 1 -13 8 -2 7 -18 14 -34 15 -24 2 -29 -2 -31 -23 -1
-14 3 -25 8 -25 6 0 10 -7 10 -15 0 -8 -8 -15 -17 -15 -15 0 -16 2 -3 10 13 8
13 10 -1 10 -9 0 -24 -10 -33 -22 -16 -22 -16 -22 -6 -1 5 12 7 29 4 37 -3 9
-1 16 6 16 6 0 8 -4 5 -10 -3 -5 -2 -10 3 -10 6 0 9 11 8 25 -1 24 -4 25 -58
24 -32 -1 -58 -5 -58 -9 0 -8 -59 -34 -72 -32 -4 1 -12 -14 -18 -33 -6 -19
-16 -35 -21 -35 -25 0 8 67 51 104 30 24 38 26 137 26 80 0 112 -4 133 -17z
m1168 6 c-10 -5 -22 -17 -27 -27 -6 -9 -11 -12 -11 -5 0 6 7 19 16 27 8 9 21
16 27 16 7 0 4 -5 -5 -11z m92 -5 c0 -8 -5 -12 -10 -9 -6 4 -8 11 -5 16 9 14
15 11 15 -7z m253 -24 c-3 -12 0 -20 6 -20 7 0 9 -4 6 -10 -11 -18 -25 -11
-25 13 0 20 7 37 16 37 1 0 0 -9 -3 -20z m-1863 -20 l0 -31 -24 18 c-15 11
-20 21 -13 25 6 4 -9 8 -33 11 -42 3 -41 4 13 5 l57 2 0 -30z m207 -3 c14 -17
14 -19 1 -9 -13 10 -17 10 -21 0 -2 -7 -8 -9 -13 -5 -5 4 -2 13 6 18 12 8 10
9 -6 5 -14 -4 -21 -2 -21 7 0 20 32 10 54 -16z m1573 26 c-19 -3 -39 -9 -45
-14 -7 -7 -3 -8 10 -3 21 7 20 6 -5 -13 -13 -10 -16 -8 -18 13 -2 23 1 24 46
22 40 -1 42 -2 12 -5z m-1941 -32 c-15 -5 -22 6 -14 19 6 9 10 9 16 -1 5 -8 4
-15 -2 -18z m1685 8 c-3 -5 -10 -7 -15 -3 -5 3 -7 10 -3 15 3 5 10 7 15 3 5
-3 7 -10 3 -15z m-1194 -5 c0 -8 -4 -12 -10 -9 -5 3 -10 10 -10 16 0 5 5 9 10
9 6 0 10 -7 10 -16z m720 -6 c0 -4 -17 -8 -37 -10 -51 -4 -56 -28 -6 -29 l38
-1 -35 -10 c-19 -5 -52 -10 -72 -12 -43 -2 -64 -16 -25 -16 15 0 27 -4 27 -10
0 -6 -35 -10 -85 -10 -50 0 -85 4 -85 10 0 6 12 10 26 10 16 0 23 4 18 11 -4
6 -20 9 -39 6 -18 -3 -37 -2 -41 3 -5 5 -22 10 -39 13 -26 4 -26 4 8 6 53 2
43 25 -12 29 -23 2 -39 7 -37 11 6 9 396 9 396 -1z m435 2 c3 -5 1 -10 -4 -10
-6 0 -11 5 -11 10 0 6 2 10 4 10 3 0 8 -4 11 -10z m-1515 -35 c7 -8 8 -15 2
-15 -5 0 -15 7 -22 15 -7 8 -8 15 -2 15 5 0 15 -7 22 -15z m1583 -5 c5 -19 0
-20 -81 -20 -47 0 -82 3 -79 7 4 3 38 5 77 4 58 -2 70 0 70 13 0 22 7 20 13
-4z m217 11 c0 -13 -26 -32 -33 -24 -8 7 11 33 24 33 5 0 9 -4 9 -9z m120 -23
c0 -5 -7 -8 -15 -8 -15 0 -20 21 -8 33 7 7 23 -11 23 -25z m-2060 7 c0 -8 -4
-15 -10 -15 -5 0 -7 7 -4 15 4 8 8 15 10 15 2 0 4 -7 4 -15z m-144 -87 c-10
-17 -12 -17 -23 -2 -9 12 -9 22 -2 36 10 19 11 19 24 2 10 -14 10 -22 1 -36z
m359 42 c4 -6 -20 -10 -72 -10 -45 0 -72 4 -65 9 20 12 129 14 137 1z m675 0
c0 -6 -113 -10 -320 -10 -207 0 -320 4 -320 10 0 6 113 10 320 10 207 0 320
-4 320 -10z m635 0 c17 -4 -55 -8 -167 -9 -126 -1 -198 3 -198 9 0 12 319 12
365 0z m538 -33 c-9 -16 -26 12 -18 30 7 17 8 17 15 -2 4 -11 5 -24 3 -28z
m156 5 c-5 -2 -9 -10 -9 -18 0 -8 -4 -14 -10 -14 -5 0 -10 7 -10 15 0 8 -5 15
-12 15 -6 0 -3 9 7 20 17 19 19 19 31 2 7 -9 8 -18 3 -20z m-2219 8 c0 -11 -4
-20 -10 -20 -5 0 -10 9 -10 20 0 11 5 20 10 20 6 0 10 -9 10 -20z m1798 13
c-15 -2 -42 -2 -60 0 -18 2 -6 4 27 4 33 0 48 -2 33 -4z m160 0 c-10 -2 -28
-2 -40 0 -13 2 -5 4 17 4 22 1 32 -1 23 -4z m-1457 -276 c17 -109 29 -200 27
-202 -2 -3 -20 -6 -39 -7 -31 -3 -34 0 -37 25 -7 59 -66 42 -76 -22 -5 -32
-11 -41 -37 -50 -39 -13 -52 -14 -45 -2 3 5 8 30 11 57 6 45 70 366 81 406 7
22 66 29 76 8 4 -8 21 -104 39 -213z m129 212 c5 -6 18 -50 30 -96 13 -46 26
-81 29 -77 3 3 20 46 37 96 29 89 31 92 62 94 l32 2 -2 -196 -3 -197 -32 -3
-33 -3 -1 73 0 73 -25 -65 c-14 -36 -29 -68 -32 -72 -4 -4 -21 27 -37 70 l-30
77 -3 -87 c-2 -61 -7 -88 -15 -88 -7 0 -23 -3 -36 -7 l-23 -6 7 209 c4 115 9
212 11 215 6 10 56 1 64 -12z m388 -23 l3 -36 -48 0 c-45 0 -49 -2 -51 -25 -2
-23 1 -25 43 -25 45 0 45 0 45 -35 0 -35 0 -35 -44 -35 l-44 0 2 -52 1 -53 48
-3 47 -3 0 -40 0 -39 -85 0 -85 0 0 189 c0 117 4 191 10 193 5 2 43 2 82 2
l73 -2 3 -36z m95 37 c-13 -2 -33 -2 -45 0 -13 2 -3 4 22 4 25 0 35 -2 23 -4z
m181 -3 c23 -8 26 -15 26 -55 0 -44 -12 -60 -24 -30 -6 17 -53 20 -76 5 -23
-14 -28 -172 -6 -204 21 -33 52 -41 81 -22 l25 16 0 -49 c0 -49 -1 -50 -35
-57 -42 -8 -100 18 -129 59 -29 40 -37 227 -11 280 26 55 90 80 149 57z m190
-1 c7 -7 97 -431 92 -436 -2 -2 -20 -1 -40 2 -30 6 -36 12 -42 40 -4 22 -13
35 -27 39 -33 9 -34 8 -40 -24 -5 -23 -12 -30 -29 -30 -52 1 -53 7 -29 157 44
262 41 252 64 255 26 5 45 4 51 -3z m267 -236 c-33 -231 -37 -247 -58 -239 -8
3 -19 6 -24 6 -17 0 -36 60 -79 255 -22 105 -43 196 -45 203 -3 8 8 12 34 12
l38 0 23 -125 c13 -69 27 -125 30 -125 3 0 12 46 19 103 19 147 18 145 54 149
24 2 33 -1 35 -14 2 -9 -10 -110 -27 -225z m-1497 231 c11 -4 16 -19 16 -50 0
-41 -2 -44 -19 -34 -31 16 -66 12 -86 -11 -16 -17 -20 -46 -27 -173 -11 -186
2 -237 44 -188 10 10 18 48 23 95 6 74 6 77 -14 77 -18 0 -21 6 -21 39 0 37 2
39 38 45 20 4 45 10 56 13 17 5 18 -2 14 -138 -2 -92 -8 -152 -17 -167 -14
-27 -83 -61 -121 -62 -76 0 -94 59 -82 275 10 174 23 221 78 264 26 21 84 28
118 15z m1726 -34 l0 -41 -51 7 -50 7 3 -54 3 -54 48 -3 47 -3 0 -40 0 -39
-50 0 -50 0 0 -39 c0 -21 3 -65 6 -98 l7 -60 48 -12 49 -13 0 -50 c0 -36 -4
-49 -12 -45 -7 2 -48 17 -90 33 l-78 29 0 85 c0 47 -3 163 -7 258 l-6 172 91
0 92 0 0 -40z m-1988 -27 c33 -29 21 -93 -18 -93 -28 0 -30 7 -8 31 28 31 -14
56 -45 27 -11 -10 -13 -10 -7 0 10 18 1 15 -15 -5 -10 -11 -10 -14 -1 -9 6 4
12 2 12 -3 0 -6 -5 -11 -11 -11 -6 0 -1 -13 10 -28 l19 -28 -21 -1 c-27 -2
-37 13 -37 55 0 64 77 106 122 65z m2159 -12 c34 -34 37 -69 10 -102 -16 -20
-22 -22 -33 -11 -11 11 -11 13 1 10 8 -2 19 9 24 24 8 21 6 33 -8 55 -10 15
-20 23 -22 16 -2 -6 -12 -9 -21 -7 -29 7 -44 -9 -33 -37 5 -13 10 -18 10 -11
1 7 6 10 12 6 17 -10 -6 -28 -26 -20 -10 3 -15 12 -11 21 3 8 2 15 -3 15 -4 0
-8 7 -8 15 0 8 3 13 6 11 3 -2 20 3 36 11 l30 14 -32 -4 c-26 -3 -30 -1 -22
10 19 22 59 15 90 -16z m-7 -81 c-5 -5 -10 7 -10 28 -2 37 -2 37 8 9 6 -16 6
-33 2 -37z m-69 -60 c-3 -5 -14 -10 -23 -9 -14 0 -13 2 3 9 27 11 27 11 20 0z
m-2065 -10 c8 -5 11 -10 5 -10 -5 0 -17 5 -25 10 -8 5 -10 10 -5 10 6 0 17 -5
25 -10z m-90 -14 c0 -2 -8 -10 -17 -17 -16 -13 -17 -12 -4 4 13 16 21 21 21
13z m2221 -13 c13 -16 12 -17 -3 -4 -17 13 -22 21 -14 21 2 0 10 -8 17 -17z
m-2188 -23 c-12 -5 -25 -19 -27 -32 -3 -13 -7 -32 -9 -43 -3 -11 -5 -5 -6 14
-1 37 22 71 48 70 11 0 8 -3 -6 -9z m64 4 c-3 -3 -12 -4 -19 -1 -8 3 -5 6 6 6
11 1 17 -2 13 -5z m2040 0 c-3 -3 -12 -4 -19 -1 -8 3 -5 6 6 6 11 1 17 -2 13
-5z m40 0 c-3 -3 -12 -4 -19 -1 -8 3 -5 6 6 6 11 1 17 -2 13 -5z m60 -74 c7 0
17 8 22 18 6 9 11 12 11 7 0 -16 -22 -35 -41 -35 -10 0 -19 -6 -22 -12 -3 -7
-5 1 -4 17 0 17 -3 41 -6 55 -4 14 1 8 11 -12 9 -21 22 -38 29 -38z m-2267 -3
c12 -4 12 -6 -2 -6 -10 -1 -22 9 -28 22 -9 19 -9 20 2 6 7 -9 20 -18 28 -22z
m109 -38 c-5 -11 -15 -19 -21 -19 -6 0 -4 7 5 18 12 13 13 22 6 37 -10 19 -10
19 5 1 11 -14 13 -24 5 -37z m1966 41 c4 -6 -5 -10 -19 -10 -14 0 -26 5 -26
10 0 6 9 10 19 10 11 0 23 -4 26 -10z m94 -6 c-11 -13 -10 -19 1 -37 12 -20
12 -21 -3 -8 -20 16 -22 47 -4 54 20 8 20 8 6 -9z m91 -121 c0 -30 -5 -36 -35
-49 -30 -12 -40 -12 -62 -2 -42 21 -37 78 7 78 27 0 46 -28 30 -43 -10 -10
-12 -9 -7 6 7 18 -1 21 -27 11 -9 -3 -13 -10 -10 -15 3 -5 -1 -9 -8 -9 -7 0
-5 -5 6 -11 14 -9 20 -8 27 2 8 13 13 5 10 -14 -1 -5 3 -6 9 -2 6 3 7 11 4 17
-5 7 -1 9 9 5 13 -5 17 -1 18 16 1 12 0 27 -1 32 -2 6 -5 21 -8 35 l-5 25 22
-24 c13 -15 21 -38 21 -58z m-2217 35 c-13 -16 -24 -60 -14 -54 4 3 15 -4 24
-15 12 -14 13 -19 4 -19 -39 0 -68 58 -42 84 9 9 14 16 10 16 -3 0 -3 5 1 11
4 7 9 8 17 0 7 -7 7 -14 0 -23z m1047 22 c0 -5 -9 -10 -20 -10 -11 0 -20 5
-20 10 0 6 9 10 20 10 11 0 20 -4 20 -10z m50 0 c0 -5 -2 -10 -4 -10 -3 0 -8
5 -11 10 -3 6 -1 10 4 10 6 0 11 -4 11 -10z m-1008 -55 c13 -30 -3 -55 -36
-55 -18 1 -18 3 8 16 20 12 25 19 17 27 -15 15 -51 19 -51 6 0 -5 5 -7 10 -4
6 3 10 2 10 -4 0 -6 8 -8 18 -4 9 3 14 3 10 -1 -3 -4 -17 -9 -31 -10 -24 -3
-26 3 -18 47 0 4 12 7 26 7 17 0 29 -8 37 -25z m584 -48 l11 -32 8 38 c4 20
12 37 17 37 6 0 8 -6 5 -14 -3 -8 -9 -31 -13 -50 -12 -66 -30 -53 -49 34 -9
41 5 33 21 -13z m84 -12 c0 -30 -4 -55 -10 -55 -5 0 -10 25 -10 55 0 30 5 55
10 55 6 0 10 -25 10 -55z m68 46 c9 -5 12 -24 10 -52 -2 -37 -7 -45 -25 -47
-22 -3 -23 0 -23 52 0 56 8 66 38 47z m92 -1 c0 -5 -9 -10 -20 -10 -11 0 -20
-4 -20 -10 0 -5 5 -10 10 -10 6 0 10 -7 10 -15 0 -8 -4 -15 -10 -15 -5 0 -10
-4 -10 -10 0 -5 9 -10 20 -10 11 0 20 -4 20 -10 0 -5 -11 -10 -25 -10 -24 0
-25 3 -25 55 0 52 1 55 25 55 14 0 25 -4 25 -10z m68 -2 c30 -30 3 -108 -33
-94 -15 6 -22 86 -8 99 10 11 28 8 41 -5z m273 -4 c12 -15 11 -16 -9 -10 -28
9 -29 -8 -1 -28 28 -19 21 -51 -11 -51 -17 0 -26 6 -29 20 -3 17 -1 18 13 6 9
-8 20 -10 24 -6 4 4 -3 14 -15 22 -32 21 -30 63 2 63 7 0 19 -7 26 -16z m87 4
c30 -30 3 -108 -33 -94 -15 6 -22 86 -8 99 10 11 28 8 41 -5z m86 -10 c13 40
26 23 26 -33 0 -33 -4 -55 -11 -55 -7 0 -8 11 -4 30 8 35 -2 40 -14 8 l-9 -23
-10 25 c-11 24 -11 24 -11 -8 -1 -46 -16 -32 -19 18 -4 55 6 69 28 40 l18 -23
6 21z m106 12 c0 -5 -6 -10 -13 -10 -8 0 -13 -13 -14 -35 -1 -24 3 -35 13 -35
8 0 14 -4 14 -10 0 -5 -11 -10 -25 -10 -23 0 -25 3 -25 48 0 27 3 52 7 55 10
11 43 8 43 -3z m591 -13 c-10 -9 -11 -8 -5 6 3 10 9 15 12 12 3 -3 0 -11 -7
-18z m-1018 -7 c4 -14 10 -18 24 -14 15 6 16 4 6 -7 -7 -7 -13 -22 -13 -32 0
-14 -5 -17 -16 -13 -9 4 -23 1 -31 -6 -12 -10 -14 -9 -11 8 1 12 -3 29 -11 38
-8 9 -10 16 -5 15 21 -4 34 2 34 16 0 22 17 18 23 -5z m-513 -9 c0 -4 -46 -18
-102 -30 -129 -27 -144 -39 -73 -54 15 -4 14 -5 -6 -6 -15 0 -32 5 -38 13 -18
21 8 35 111 61 111 28 108 27 108 16z m1190 -41 c34 -18 18 -52 -23 -49 -7 0
-1 5 13 10 22 9 23 12 9 22 -9 7 -57 20 -108 31 -50 10 -91 22 -91 26 0 9 173
-25 200 -40z m-1752 -50 c9 -17 25 -33 35 -36 9 -3 15 -8 13 -12 -3 -5 46 -7
62 -3 1 1 5 1 10 2 4 1 19 10 35 21 15 11 27 14 27 9 0 -22 -64 -51 -112 -51
-37 0 -50 5 -62 22 -9 13 -16 17 -16 9 0 -11 -3 -11 -15 -1 -17 14 -21 70 -5
70 6 0 19 -14 28 -30z m49 8 c-3 -8 -6 -5 -6 6 -1 11 2 17 5 13 3 -3 4 -12 1
-19z m235 -77 c-10 -14 -29 -27 -41 -29 -18 -3 -21 1 -21 32 0 36 34 81 52 70
4 -3 11 3 16 13 5 13 8 7 10 -21 2 -27 -3 -47 -16 -65z m1552 79 c19 0 49 -37
43 -52 -4 -9 -6 -7 -6 4 -1 10 -11 22 -23 28 -21 10 -21 10 -5 -3 25 -20 21
-29 -10 -25 -29 3 -40 26 -28 56 5 12 9 13 12 5 3 -7 10 -13 17 -13z m236 6
c0 -8 -4 -17 -9 -21 -6 -3 -9 4 -8 15 1 23 17 28 17 6z m80 -12 c0 -9 -13 -29
-29 -45 -23 -23 -38 -29 -71 -29 -48 0 -99 19 -120 46 -12 15 -8 14 23 -5 31
-19 47 -22 90 -17 29 3 53 6 55 6 1 0 2 8 3 18 0 14 2 14 9 -3 7 -17 9 -15 9
11 1 17 4 34 7 37 10 10 24 -2 24 -19z m-1703 0 c-3 -3 -12 -4 -19 -1 -8 3 -5
6 6 6 11 1 17 -2 13 -5z m66 -1 c-7 -2 -19 -2 -25 0 -7 3 -2 5 12 5 14 0 19
-2 13 -5z m1106 3 c-8 -8 -171 -47 -177 -42 -6 7 9 12 83 30 60 14 102 20 94
12z m-1036 -57 c20 -5 37 -14 37 -18 0 -5 -38 3 -85 17 -47 14 -85 29 -85 33
0 4 21 1 48 -7 26 -8 64 -19 85 -25z m42 19 c22 -6 33 -13 25 -15 -8 -2 -44 6
-80 17 -51 16 -56 19 -25 15 22 -3 58 -10 80 -17z m970 1 c-33 -11 -69 -18
-80 -17 -11 2 6 11 40 20 84 22 113 20 40 -3z m-775 -9 c0 -13 -7 -20 -20 -20
-11 0 -20 6 -20 14 0 8 -8 17 -17 19 -10 3 -1 5 20 6 31 1 37 -2 37 -19z m40
-120 c0 -80 -4 -130 -10 -130 -6 0 -10 50 -10 130 0 80 4 130 10 130 6 0 10
-50 10 -130z m-426 114 c9 -4 21 -15 27 -26 10 -18 8 -18 -20 3 -26 19 -34 21
-56 11 -14 -7 -30 -22 -35 -34 -7 -18 -9 -19 -9 -5 -2 38 51 67 93 51z m747
-23 c26 -26 29 -36 28 -88 0 -76 -18 -127 -44 -130 -16 -1 -16 -1 -3 3 23 7
33 44 33 120 0 83 -18 104 -89 102 -29 0 -43 -4 -33 -7 17 -6 17 -8 4 -20 -11
-9 -13 -19 -8 -35 8 -19 5 -23 -24 -32 -30 -9 -32 -9 -22 7 6 9 17 15 24 12
15 -6 16 -2 7 21 -3 9 -10 13 -15 10 -5 -3 -9 0 -9 6 0 7 7 10 15 7 8 -4 17
-2 20 3 4 6 -5 10 -19 10 -14 0 -28 5 -31 10 -18 29 -105 -2 -105 -37 0 -7 -5
-13 -10 -13 -15 0 16 57 37 69 10 6 62 11 116 11 96 0 99 -1 128 -29z m206 23
c-4 -4 -35 -7 -69 -8 l-63 -1 -6 -35 -6 -35 -2 43 -1 42 77 0 c42 0 73 -3 70
-6z m286 -4 c-12 -5 -29 -22 -37 -37 -8 -15 -15 -24 -16 -20 0 4 -10 3 -21 -4
-17 -9 -20 -8 -16 3 2 7 10 12 16 11 6 -2 10 7 8 20 -2 17 2 21 20 19 12 -2
24 2 28 8 3 5 14 10 23 9 13 0 11 -3 -5 -9z m69 -7 c10 -9 18 -21 18 -27 0 -6
-5 -3 -11 7 -6 10 -20 22 -32 27 -12 5 -16 9 -8 9 8 1 23 -6 33 -16z m-1243
-22 c11 -16 23 -18 60 -15 43 4 44 4 21 -8 -14 -8 -25 -21 -24 -31 4 -81 3
-80 27 -75 13 2 29 -1 35 -9 17 -18 32 -16 32 3 0 9 -5 12 -12 8 -6 -4 -8 -3
-4 4 3 5 0 13 -6 16 -7 3 -2 3 11 0 21 -6 22 -4 10 9 -8 8 -16 14 -19 12 -3
-2 -5 8 -5 21 l0 24 17 -23 c17 -22 17 -22 9 10 -5 18 -6 35 -1 38 13 8 16 -4
19 -82 l2 -72 -62 19 c-76 23 -88 33 -71 60 7 11 8 20 4 20 -5 0 -9 7 -9 15 0
8 4 15 9 15 5 0 7 4 4 9 -3 4 -16 7 -29 6 -15 -2 -26 5 -34 21 -13 29 -3 32
16 5z m1370 6 c-9 -7 -21 -23 -28 -37 -11 -24 -11 -24 3 -6 18 23 46 30 46 12
0 -20 -31 -57 -42 -50 -6 4 -8 2 -5 -3 7 -11 -20 -39 -29 -30 -3 2 -5 24 -6
46 0 47 23 81 56 81 19 -1 19 -2 5 -13z m-1460 0 c-2 -1 -13 -9 -24 -17 -19
-14 -19 -14 -6 3 7 9 18 17 24 17 6 0 8 -1 6 -3z m896 -7 c4 -6 1 -17 -5 -26
-15 -18 -42 0 -33 22 6 16 29 19 38 4z m52 -16 c2 -10 0 -14 -3 -7 -3 7 -12 9
-20 6 -14 -5 -19 8 -7 21 11 11 28 1 30 -20z m208 16 c3 -5 2 -10 -4 -10 -5 0
-13 5 -16 10 -3 6 -2 10 4 10 5 0 13 -4 16 -10z m-745 -25 c0 -14 -4 -25 -10
-25 -5 0 -10 -7 -10 -15 0 -8 5 -15 10 -15 6 0 10 -28 10 -65 0 -58 -2 -65
-20 -65 -11 0 -20 7 -20 15 0 8 -5 15 -12 15 -9 0 -9 3 0 12 15 15 17 132 2
123 -5 -3 -10 -1 -10 4 0 6 5 11 10 11 6 0 10 7 10 15 0 8 9 15 20 15 15 0 20
-7 20 -25z m166 11 c18 -18 18 -24 -1 -42 -12 -13 -17 -12 -33 4 -18 18 -18
21 -3 35 21 20 20 20 37 3z m169 -16 c0 -18 -6 -26 -21 -28 -23 -3 -37 18 -27
44 10 25 48 13 48 -16z m315 26 c0 -2 -7 -7 -16 -10 -8 -3 -12 -2 -9 4 6 10
25 14 25 6z m220 -6 c0 -5 -5 -10 -11 -10 -5 0 -7 5 -4 10 3 6 8 10 11 10 2 0
4 -4 4 -10z m-1274 -35 c-9 -9 -14 -21 -11 -26 10 -15 -7 -10 -27 8 -10 9 -18
21 -18 26 0 6 6 3 13 -8 12 -15 15 -16 23 -4 5 8 9 17 10 22 1 4 2 10 3 14 0
4 6 2 12 -4 9 -9 8 -16 -5 -28z m1124 10 c5 3 11 1 15 -5 3 -5 -1 -10 -9 -10
-9 0 -16 -8 -17 -17 0 -11 -3 -13 -6 -5 -2 6 -14 12 -26 12 -20 1 -21 2 -4 14
9 7 17 19 17 27 1 10 4 8 11 -4 6 -9 14 -15 19 -12z m-1380 6 c0 -5 47 -59
105 -120 58 -61 105 -108 105 -104 0 3 9 -2 20 -12 10 -9 19 -20 18 -24 -2
-17 3 -25 10 -14 6 9 15 6 34 -12 14 -13 29 -21 33 -17 4 4 5 0 3 -8 -2 -8 5
-14 17 -15 12 0 19 -6 17 -14 -2 -9 3 -11 13 -7 11 4 14 2 9 -6 -5 -8 -2 -9
10 -5 11 4 15 3 11 -4 -4 -6 -1 -10 6 -8 28 3 40 -1 33 -13 -5 -8 -2 -9 10 -5
11 5 15 3 10 -5 -5 -8 -2 -9 9 -5 22 8 49 -2 40 -16 -4 -6 0 -8 10 -4 20 7 49
-2 42 -13 -2 -4 8 -7 23 -7 37 0 162 -26 162 -34 0 -4 18 -5 40 -2 21 3 47 2
57 -2 27 -12 93 -13 93 -2 0 6 22 7 56 2 36 -4 54 -3 50 3 -7 12 79 26 96 16
7 -4 8 -3 4 4 -4 7 0 13 11 14 33 2 38 3 51 11 6 5 17 5 24 1 6 -4 8 -3 5 3
-8 12 59 37 74 27 7 -4 9 -3 5 4 -7 11 30 28 53 23 7 -1 10 2 6 8 -6 11 6 15
32 12 6 -1 15 4 19 10 4 8 3 9 -4 5 -7 -4 -12 -4 -12 -1 0 3 15 13 33 21 17 7
48 26 66 41 19 16 31 22 27 14 -6 -9 -5 -12 5 -9 8 3 14 11 14 19 0 7 11 19
25 26 14 7 21 13 16 13 -5 0 4 10 20 22 16 13 32 23 36 23 4 0 13 7 20 15 11
12 11 12 -4 1 -32 -24 -19 -6 34 50 29 30 57 53 62 51 5 -2 6 4 2 13 -3 9 -2
13 4 10 6 -3 10 0 10 8 0 14 28 32 37 23 8 -8 -112 -145 -124 -141 -7 2 -10
-2 -7 -9 6 -15 -81 -93 -98 -88 -5 1 -7 -2 -4 -7 7 -11 -132 -105 -219 -149
-151 -75 -288 -105 -475 -106 -200 0 -350 40 -533 142 -100 55 -209 140 -200
154 3 6 2 8 -4 5 -13 -8 -56 37 -46 48 5 4 3 5 -4 1 -7 -4 -35 21 -72 66 -64
77 -70 88 -46 88 8 0 15 -4 15 -9z m-61 -31 c12 -17 19 -36 15 -42 -4 -6 -3
-8 3 -5 14 9 37 -19 27 -34 -4 -7 -3 -9 3 -6 6 4 30 -15 55 -41 49 -51 193
-186 193 -180 0 1 21 -10 47 -27 26 -16 44 -33 41 -38 -3 -4 1 -7 9 -5 21 5
98 -33 91 -45 -4 -6 0 -8 11 -4 14 6 80 -17 96 -33 3 -3 14 -6 25 -6 11 -1 47
-9 80 -18 32 -9 72 -16 88 -16 15 0 26 -3 24 -7 -9 -14 256 -6 342 10 47 9 89
13 95 10 6 -3 8 -3 4 2 -4 4 18 17 50 27 78 27 212 90 264 126 24 16 49 27 57
24 8 -2 11 0 8 5 -7 11 96 98 116 98 6 0 12 5 12 10 0 17 16 36 26 30 5 -4 9
-1 9 5 0 7 11 21 25 32 13 10 24 23 22 27 -3 11 92 131 105 131 11 0 -6 -30
-51 -90 -49 -67 -174 -191 -187 -186 -8 3 -11 0 -8 -8 7 -17 -120 -104 -233
-160 -168 -84 -320 -119 -513 -120 -189 0 -358 41 -528 129 -98 50 -268 176
-264 194 1 7 -1 10 -6 7 -12 -7 -54 38 -45 49 5 4 2 5 -5 1 -8 -5 -17 4 -27
26 -8 18 -14 29 -15 24 0 -5 -9 -1 -20 9 -11 10 -17 22 -14 26 3 5 1 9 -5 9
-5 0 -24 20 -41 45 -35 51 -18 65 19 15z m501 22 c0 -13 -12 -22 -22 -16 -10
6 -1 24 13 24 5 0 9 -4 9 -8z m1123 -13 c20 13 21 13 8 -2 -7 -10 -21 -17 -31
-17 -10 0 -24 7 -31 17 -13 15 -12 15 9 2 19 -12 25 -12 45 0z m-1273 -3 c0
-2 -8 -10 -17 -17 -16 -13 -17 -12 -4 4 13 16 21 21 21 13z m470 -31 c0 -5 -5
-3 -10 5 -5 8 -10 20 -10 25 0 6 5 3 10 -5 5 -8 10 -19 10 -25z m465 25 c-3
-5 -35 -10 -70 -10 -35 0 -67 5 -70 10 -4 6 22 10 70 10 48 0 74 -4 70 -10z
m-915 -10 c0 -5 -10 -15 -22 -21 l-23 -12 20 21 c23 24 25 25 25 12z m988 -48
c38 -8 72 -8 72 -2 0 5 -6 11 -12 13 -7 3 -3 6 9 6 12 1 23 -2 26 -6 2 -5 3
-3 2 2 -1 6 1 19 6 30 6 16 8 12 8 -16 1 -33 -2 -37 -36 -47 -22 -7 -41 -8
-47 -2 -5 5 -18 5 -32 0 -23 -9 -24 -8 -23 38 1 39 3 42 8 17 3 -16 12 -31 19
-33z m302 54 c0 -2 -8 -10 -17 -17 -16 -13 -17 -12 -4 4 13 16 21 21 21 13z
m-1470 -26 c0 -5 -4 -10 -10 -10 -5 0 -10 5 -10 10 0 6 5 10 10 10 6 0 10 -4
10 -10z m305 0 c3 -5 1 -10 -4 -10 -6 0 -11 5 -11 10 0 6 2 10 4 10 3 0 8 -4
11 -10z m302 -22 c-3 -7 -5 -2 -5 12 0 14 2 19 5 13 2 -7 2 -19 0 -25z m580
10 c-3 -8 -6 -5 -6 6 -1 11 2 17 5 13 3 -3 4 -12 1 -19z m-173 -1 c-3 -8 -11
-14 -19 -14 -8 0 -15 6 -15 14 0 7 9 13 20 13 12 0 17 -5 14 -13z m56 3 c0 -5
-9 -10 -20 -10 -11 0 -20 5 -20 10 0 6 9 10 20 10 11 0 20 -4 20 -10z m137
-12 c-3 -8 -6 -5 -6 6 -1 11 2 17 5 13 3 -3 4 -12 1 -19z m-419 5 c-10 -2 -28
-2 -40 0 -13 2 -5 4 17 4 22 1 32 -1 23 -4z m62 -56 c0 -12 0 -11 -24 28 l-17
30 20 -24 c12 -13 21 -28 21 -34z m-170 -6 c-13 -26 -27 -41 -38 -40 -15 1
-15 2 -1 6 9 2 24 22 34 44 10 21 20 37 22 35 3 -2 -5 -22 -17 -45z m-598 14
c0 -5 -5 -11 -11 -13 -6 -2 -11 4 -11 13 0 9 5 15 11 13 6 -2 11 -8 11 -13z
m547 -30 c0 -5 -4 -3 -9 5 -5 8 -9 22 -9 30 0 16 17 -16 18 -35z m438 19 c-9
-9 -28 6 -21 18 4 6 10 6 17 -1 6 -6 8 -13 4 -17z m312 17 c12 -8 12 -12 -2
-25 -28 -28 -61 -10 -37 19 14 17 20 18 39 6z m75 -12 c-3 -5 -10 -7 -15 -3
-5 3 -7 10 -3 15 3 5 10 7 15 3 5 -3 7 -10 3 -15z m-444 7 c0 -2 -7 -6 -15
-10 -8 -3 -15 -1 -15 4 0 6 7 10 15 10 8 0 15 -2 15 -4z m-800 -30 c0 -2 -11
-6 -25 -8 -14 -3 -25 -1 -25 3 0 5 11 9 25 9 14 0 25 -2 25 -4z m600 -8 c0 -4
-20 -8 -45 -8 -25 0 -45 4 -45 8 0 5 20 9 45 8 25 0 45 -3 45 -8z m197 -14
c-3 -3 -12 -4 -19 -1 -8 3 -5 6 6 6 11 1 17 -2 13 -5z m76 -1 c-7 -2 -21 -2
-30 0 -10 3 -4 5 12 5 17 0 24 -2 18 -5z m-865 -20 c-16 -2 -40 -2 -55 0 -16
2 -3 4 27 4 30 0 43 -2 28 -4z m110 0 c-16 -2 -40 -2 -55 0 -16 2 -3 4 27 4
30 0 43 -2 28 -4z m925 0 c-13 -2 -35 -2 -50 0 -16 2 -5 4 22 4 28 0 40 -2 28
-4z m122 2 c-23 -8 -85 -10 -85 -3 0 4 21 8 48 7 26 0 43 -2 37 -4z m-570 -20
c90 -43 60 -175 -40 -175 -49 0 -95 42 -95 87 0 44 14 69 48 87 35 19 47 19
87 1z m245 -20 c0 -20 -28 -75 -38 -75 -12 0 -43 70 -37 81 4 5 22 9 41 9 24
0 34 -5 34 -15z m-540 -4 c0 -9 -89 -21 -103 -14 -4 3 -5 9 -2 14 8 12 105 12
105 0z m-221 -11 c39 -11 81 -46 81 -68 0 -12 -3 -12 -22 1 -13 8 -22 20 -21
25 1 6 -4 13 -13 16 -9 4 -12 2 -8 -5 3 -6 -8 -4 -24 5 -17 9 -42 16 -57 16
-14 0 -25 5 -25 10 0 13 45 13 89 0z m1036 0 c3 -5 -3 -10 -14 -10 -11 0 -23
-5 -26 -10 -4 -6 -10 -8 -15 -5 -5 3 -25 -1 -44 -9 -19 -8 -37 -12 -40 -10 -3
2 -4 1 -1 -3 6 -7 -14 -33 -25 -33 -13 0 1 37 20 55 33 30 132 47 145 25z
m-725 -10 c0 -5 -5 -10 -11 -10 -5 0 -7 5 -4 10 3 6 8 10 11 10 2 0 4 -4 4
-10z m329 -77 c0 -59 -3 -81 -9 -68 -12 28 -12 155 0 155 6 0 10 -35 9 -87z
m178 -10 c-2 -21 -4 -6 -4 32 0 39 2 55 4 38 2 -18 2 -50 0 -70z m-589 50
c-10 -2 -26 -2 -35 0 -10 3 -2 5 17 5 19 0 27 -2 18 -5z m-21 -42 c25 -4 39
-12 41 -24 6 -28 -43 -21 -81 12 l-33 30 4 -32 c6 -39 -5 -33 -12 7 -7 40 2
51 25 30 10 -9 36 -20 56 -23z m83 -30 c0 -15 -30 -41 -46 -41 -10 0 -6 8 12
25 30 27 34 30 34 16z m440 -31 c0 -5 -7 -10 -16 -10 -8 0 -12 5 -9 10 3 6 10
10 16 10 5 0 9 -4 9 -10z"/>
<path d="M1162 2213 c-13 -3 -26 -11 -29 -19 -3 -8 -9 -11 -14 -8 -5 3 -9 0
-9 -6 0 -7 -7 -10 -15 -6 -9 3 -15 0 -15 -8 0 -9 -7 -12 -17 -10 -19 5 -62
-20 -52 -30 3 -3 33 -8 67 -10 49 -4 62 -2 62 9 0 8 6 18 13 22 14 9 50 74 39
72 -4 -1 -17 -4 -30 -6z"/>
<path d="M1266 2177 c3 -10 9 -15 12 -12 3 3 0 11 -7 18 -10 9 -11 8 -5 -6z"/>
<path d="M1406 2181 c-4 -5 -2 -12 3 -15 5 -4 12 -2 15 3 4 5 2 12 -3 15 -5 4
-12 2 -15 -3z"/>
<path d="M933 2065 c0 -8 4 -12 9 -9 4 3 8 9 8 15 0 5 -4 9 -8 9 -5 0 -9 -7
-9 -15z"/>
<path d="M850 1993 c0 -81 10 -77 17 6 3 40 1 61 -6 61 -7 0 -11 -26 -11 -67z"/>
<path d="M1820 2000 c0 -33 4 -60 10 -60 6 0 10 27 10 60 0 33 -4 60 -10 60
-6 0 -10 -27 -10 -60z"/>
<path d="M1602 1998 c3 -7 11 -34 19 -60 11 -39 18 -48 36 -48 13 0 23 -3 23
-7 0 -5 16 -8 35 -8 39 0 39 -1 25 26 -6 11 -21 19 -36 19 -14 0 -22 4 -19 10
3 6 -1 10 -9 10 -9 0 -18 11 -22 25 -3 14 -14 30 -24 35 -25 13 -33 13 -28 -2z"/>
<path d="M1070 1980 c-11 -11 -20 -24 -20 -30 0 -5 -7 -10 -15 -10 -8 0 -15
-7 -15 -15 0 -8 -9 -15 -20 -15 -16 0 -40 -26 -40 -43 0 -6 51 3 75 13 11 4
28 11 37 14 11 3 15 11 12 21 -4 8 -1 15 7 15 7 0 9 3 6 7 -4 3 -2 12 4 20 6
7 8 13 4 13 -4 0 -2 7 5 15 20 24 -16 19 -40 -5z"/>
<path d="M1700 2281 c0 -6 4 -13 10 -16 6 -3 7 1 4 9 -7 18 -14 21 -14 7z"/>
<path d="M1760 2195 c44 -51 90 -85 90 -65 0 5 -6 10 -13 10 -7 0 -19 9 -27
21 -8 11 -28 30 -45 42 l-30 21 25 -29z"/>
<path d="M675 2190 c-4 -6 5 -10 20 -10 15 0 24 4 20 10 -3 6 -12 10 -20 10
-8 0 -17 -4 -20 -10z"/>
<path d="M706 2078 c3 -5 10 -6 15 -3 13 9 11 12 -6 12 -8 0 -12 -4 -9 -9z"/>
<path d="M357 1873 c-4 -3 -7 -11 -7 -17 0 -6 5 -5 12 2 6 6 9 14 7 17 -3 3
-9 2 -12 -2z"/>
<path d="M454 1829 c-12 -14 -14 -19 -5 -17 8 2 17 -8 21 -22 6 -20 7 -16 8
18 0 23 -1 42 -3 42 -1 0 -10 -9 -21 -21z"/>
<path d="M2250 1879 c0 -5 -4 -8 -9 -4 -10 6 -24 -11 -27 -32 -1 -7 2 -15 7
-19 5 -3 6 -11 3 -17 -4 -7 -3 -9 1 -4 5 4 18 -2 31 -14 l22 -20 21 22 c12 13
21 27 21 33 0 5 3 6 6 3 4 -4 1 -15 -7 -24 -13 -16 -12 -17 3 -5 15 12 22 53
8 49 -10 -3 -50 30 -43 36 3 4 -3 7 -15 7 -12 0 -22 -5 -22 -11z m54 -38 c4
-5 -3 -7 -14 -4 -14 4 -22 -1 -28 -16 -8 -22 -8 -22 -25 -3 -16 18 -16 19 5
18 16 -1 23 4 22 16 -1 14 2 15 17 8 10 -6 20 -14 23 -19z m-14 -27 c0 -8 -5
-12 -10 -9 -6 4 -8 11 -5 16 9 14 15 11 15 -7z"/>
<path d="M620 1801 c0 -6 4 -13 10 -16 6 -3 7 1 4 9 -7 18 -14 21 -14 7z"/>
<path d="M1010 1609 c0 -5 5 -7 10 -4 6 3 10 8 10 11 0 2 -4 4 -10 4 -5 0 -10
-5 -10 -11z"/>
<path d="M1716 1725 c-22 -33 -20 -39 4 -15 12 12 25 18 30 15 6 -3 7 1 4 9
-9 22 -19 20 -38 -9z"/>
<path d="M1811 1584 c0 -11 3 -14 6 -6 3 7 2 16 -1 19 -3 4 -6 -2 -5 -13z"/>
<path d="M1328 1523 c7 -3 16 -2 19 1 4 3 -2 6 -13 5 -11 0 -14 -3 -6 -6z"/>
<path d="M730 1228 c0 -18 -3 -43 -6 -55 -5 -17 -2 -23 10 -23 13 0 16 11 16
49 0 28 -4 53 -10 56 -6 4 -10 -7 -10 -27z"/>
<path d="M1766 1221 c-7 -57 -5 -65 16 -59 11 2 12 13 3 58 l-11 55 -8 -54z"/>
<path d="M250 1376 c0 -8 51 -13 56 -5 3 5 -9 9 -25 9 -17 0 -31 -2 -31 -4z"/>
<path d="M296 1317 c-16 -12 -16 -14 -3 -14 9 0 18 6 21 14 3 7 4 13 3 13 -2
0 -11 -6 -21 -13z"/>
<path d="M210 1285 c0 -8 4 -15 10 -15 5 0 7 7 4 15 -4 8 -8 15 -10 15 -2 0
-4 -7 -4 -15z"/>
<path d="M1050 915 c0 -25 4 -35 13 -32 6 2 12 16 12 32 0 16 -6 30 -12 33 -9
2 -13 -8 -13 -33z"/>
<path d="M1207 943 c-14 -13 -7 -63 8 -63 10 0 15 11 15 35 0 33 -8 43 -23 28z"/>
<path d="M1567 943 c-14 -13 -7 -63 8 -63 10 0 15 11 15 35 0 33 -8 43 -23 28z"/>
<path d="M536 811 c-10 -11 -16 -28 -13 -38 4 -17 5 -17 6 1 0 11 8 28 18 38
9 10 14 18 11 18 -3 0 -13 -9 -22 -19z"/>
<path d="M1906 767 c3 -10 9 -15 12 -12 3 3 0 11 -7 18 -10 9 -11 8 -5 -6z"/>
<path d="M1411 740 c-16 -9 -6 -30 15 -30 15 0 20 25 6 34 -4 2 -14 1 -21 -4z"/>
<path d="M504 631 c7 -11 46 -35 46 -28 0 3 -12 12 -26 22 -15 9 -23 12 -20 6z"/>
<path d="M2159 623 c-13 -16 -12 -17 4 -4 16 13 21 21 13 21 -2 0 -10 -8 -17
-17z"/>
<path d="M570 571 c0 -10 19 -25 25 -20 1 2 -3 10 -11 17 -8 7 -14 8 -14 3z"/>
<path d="M2069 533 c-13 -16 -12 -17 4 -4 16 13 21 21 13 21 -2 0 -10 -8 -17
-17z"/>
<path d="M1949 439 l-24 -20 28 17 c15 9 27 18 27 20 0 8 -8 4 -31 -17z"/>
<path d="M711 447 c2 -1 13 -9 24 -17 19 -14 19 -14 6 3 -7 9 -18 17 -24 17
-6 0 -8 -1 -6 -3z"/>
<path d="M2269 653 c-13 -16 -12 -17 4 -4 16 13 21 21 13 21 -2 0 -10 -8 -17
-17z"/>
<path d="M517 519 c7 -7 15 -10 18 -7 3 3 -2 9 -12 12 -14 6 -15 5 -6 -5z"/>
<path d="M1265 415 c8 -39 39 -65 79 -65 35 1 57 15 74 47 17 32 14 41 -6 17
-43 -51 -107 -49 -138 5 l-15 26 6 -30z"/>
</g>
</svg>
